<?xml version="1.0" encoding="UTF-8" standalone="no"?>
<!-- Created with Inkscape (http://www.inkscape.org/) -->

<svg
   xmlns:dc="http://purl.org/dc/elements/1.1/"
   xmlns:cc="http://creativecommons.org/ns#"
   xmlns:rdf="http://www.w3.org/1999/02/22-rdf-syntax-ns#"
   xmlns:svg="http://www.w3.org/2000/svg"
   xmlns="http://www.w3.org/2000/svg"
   xmlns:sodipodi="http://sodipodi.sourceforge.net/DTD/sodipodi-0.dtd"
   xmlns:inkscape="http://www.inkscape.org/namespaces/inkscape"
   width="210mm"
   height="297mm"
   viewBox="0 0 744.09448819 1052.3622047"
   id="svg2"
   version="1.1"
   inkscape:version="0.92.3 (2405546, 2018-03-11)"
   sodipodi:docname="forest-border-path.svg">
  <defs
     id="defs4" />
  <sodipodi:namedview
     id="base"
     pagecolor="#ffffff"
     bordercolor="#666666"
     borderopacity="1.0"
     inkscape:pageopacity="0.0"
     inkscape:pageshadow="2"
     inkscape:zoom="7.9195959"
     inkscape:cx="417.18663"
     inkscape:cy="630.70171"
     inkscape:document-units="px"
     inkscape:current-layer="layer1"
     showgrid="true"
     inkscape:window-width="1865"
     inkscape:window-height="1025"
     inkscape:window-x="55"
     inkscape:window-y="27"
     inkscape:window-maximized="1">
    <inkscape:grid
       type="xygrid"
       id="grid4136" />
  </sodipodi:namedview>
  <metadata
     id="metadata7">
    <rdf:RDF>
      <cc:Work
         rdf:about="">
        <dc:format>image/svg+xml</dc:format>
        <dc:type
           rdf:resource="http://purl.org/dc/dcmitype/StillImage" />
        <dc:title></dc:title>
      </cc:Work>
    </rdf:RDF>
  </metadata>
  <g
     inkscape:label="Layer 1"
     inkscape:groupmode="layer"
     id="layer1">
    <path
       style="fill:#000000;fill-opacity:1;stroke:none;stroke-width:0.40626761;stroke-miterlimit:4;stroke-dasharray:none;stroke-opacity:1"
       d="m 317.09154,454.63519 a 1.5742979,1.5151093 0 0 1 -1.5743,1.51511 1.5742979,1.5151093 0 0 1 -1.5743,-1.51511 1.5742979,1.5151093 0 0 1 1.5743,-1.51511 1.5742979,1.5151093 0 0 1 1.5743,1.51511 z"
       id="path821-3" />
    <path
       style="fill:#000000;fill-opacity:1;stroke:none;stroke-width:0.39007378;stroke-miterlimit:4;stroke-dasharray:none;stroke-opacity:1"
       d="m 354.45116,444.28876 a 1.5742979,1.3967321 0 0 1 -1.5743,1.39673 1.5742979,1.3967321 0 0 1 -1.5743,-1.39673 1.5742979,1.3967321 0 0 1 1.5743,-1.39673 1.5742979,1.3967321 0 0 1 1.5743,1.39673 z"
       id="path821-6" />
    <path
       style="fill:#000000;fill-opacity:1;stroke:none;stroke-width:0.49970078;stroke-miterlimit:4;stroke-dasharray:none;stroke-opacity:1"
       d="m 336.0551,448.55032 a 1.9294297,1.870241 0 0 1 -1.92943,1.87024 1.9294297,1.870241 0 0 1 -1.92943,-1.87024 1.9294297,1.870241 0 0 1 1.92943,-1.87024 1.9294297,1.870241 0 0 1 1.92943,1.87024 z"
       id="path821-7" />
    <path
       style="fill:#000000;fill-opacity:1;stroke:none;stroke-width:0.32840058;stroke-miterlimit:4;stroke-dasharray:none;stroke-opacity:1"
       d="m 331.79351,465.90424 a 1.2191662,1.2783548 0 0 1 -1.21917,1.27835 1.2191662,1.2783548 0 0 1 -1.21917,-1.27835 1.2191662,1.2783548 0 0 1 1.21917,-1.27836 1.2191662,1.2783548 0 0 1 1.21917,1.27836 z"
       id="path821-5" />
    <path
       style="fill:#000000;fill-opacity:1;stroke:none;stroke-width:0.39855725;stroke-miterlimit:4;stroke-dasharray:none;stroke-opacity:1"
       d="m 360.32245,459.98538 a 1.5151093,1.5151093 0 0 1 -1.51511,1.51511 1.5151093,1.5151093 0 0 1 -1.51511,-1.51511 1.5151093,1.5151093 0 0 1 1.51511,-1.51511 1.5151093,1.5151093 0 0 1 1.51511,1.51511 z"
       id="path821-35" />
    <path
       style="fill:#000000;fill-opacity:1;stroke:none;stroke-width:0.42184025;stroke-miterlimit:4;stroke-dasharray:none;stroke-opacity:1"
       d="m 301.6781,442.47711 a 1.6334865,1.5742979 0 0 1 -1.63348,1.5743 1.6334865,1.5742979 0 0 1 -1.63349,-1.5743 1.6334865,1.5742979 0 0 1 1.63349,-1.5743 1.6334865,1.5742979 0 0 1 1.63348,1.5743 z"
       id="path821-62" />
    <path
       style="fill:#000000;fill-opacity:1;stroke:none;stroke-width:0.36708748;stroke-miterlimit:4;stroke-dasharray:none;stroke-opacity:1"
       d="m 395.85881,462.95636 a 1.3375434,1.4559207 0 0 1 -1.33754,1.45592 1.3375434,1.4559207 0 0 1 -1.33754,-1.45592 1.3375434,1.4559207 0 0 1 1.33754,-1.45592 1.3375434,1.4559207 0 0 1 1.33754,1.45592 z"
       id="path821-1" />
    <path
       style="fill:#000000;fill-opacity:1;stroke:none;stroke-width:0.36609554;stroke-miterlimit:4;stroke-dasharray:none;stroke-opacity:1"
       d="m 295.94843,459.34589 a 1.5151093,1.2783548 0 0 1 -1.51511,1.27835 1.5151093,1.2783548 0 0 1 -1.51511,-1.27835 1.5151093,1.2783548 0 0 1 1.51511,-1.27836 1.5151093,1.2783548 0 0 1 1.51511,1.27836 z"
       id="path821-2" />
    <path
       style="fill:#000000;fill-opacity:1;stroke:none;stroke-width:0.41412714;stroke-miterlimit:4;stroke-dasharray:none;stroke-opacity:1"
       d="m 389.93996,444.01602 a 1.5742979,1.5742979 0 0 1 -1.5743,1.5743 1.5742979,1.5742979 0 0 1 -1.5743,-1.5743 1.5742979,1.5742979 0 0 1 1.5743,-1.5743 1.5742979,1.5742979 0 0 1 1.5743,1.5743 z"
       id="path821-70" />
    <path
       style="fill:#000000;fill-opacity:1;stroke:none;stroke-width:0.37512168;stroke-miterlimit:4;stroke-dasharray:none;stroke-opacity:1"
       d="m 377.6995,451.26022 a 1.396732,1.4559207 0 0 1 -1.39674,1.45592 1.396732,1.4559207 0 0 1 -1.39673,-1.45592 1.396732,1.4559207 0 0 1 1.39673,-1.45592 1.396732,1.4559207 0 0 1 1.39674,1.45592 z"
       id="path821-93" />
  </g>
</svg>
